<svg width="1600" height="900" viewBox="0 0 1600 900" xmlns="http://www.w3.org/2000/svg" role="img" aria-labelledby="heroTitle">
  <title id="heroTitle">Vic's Bar & Grill exterior with warm evening glow</title>
  <defs>
    <linearGradient id="bgGrad" x1="0%" y1="0%" x2="100%" y2="100%">
      <stop offset="0%" stop-color="#f7f9ff" />
      <stop offset="100%" stop-color="#dbe8ff" />
    </linearGradient>
    <linearGradient id="windowGlow" x1="0%" y1="0%" x2="0%" y2="100%">
      <stop offset="0%" stop-color="#ffd7d7" stop-opacity=".9" />
      <stop offset="100%" stop-color="#f7f9ff" stop-opacity="0" />
    </linearGradient>
  </defs>
  <rect width="1600" height="900" fill="url(#bgGrad)" />
  <rect x="120" y="420" width="1360" height="320" rx="36" fill="#1f4ed8" />
  <rect x="160" y="460" width="1080" height="220" rx="24" fill="#ffffff" />
  <rect x="176" y="488" width="180" height="120" rx="18" fill="#d12226" />
  <rect x="740" y="480" width="660" height="120" rx="18" fill="#e8f0ff" />
  <rect x="760" y="500" width="620" height="16" rx="8" fill="#1f4ed8" />
  <rect x="760" y="540" width="420" height="16" rx="8" fill="#1f4ed8" />
  <circle cx="1190" cy="370" r="74" fill="#d12226" />
  <circle cx="1190" cy="370" r="48" fill="#fff" />
  <path d="M240 620h1120" stroke="#1f4ed8" stroke-width="20" stroke-linecap="round" />
  <path d="M240 675h1120" stroke="#1f4ed8" stroke-width="20" stroke-linecap="round" />
  <path d="M240 728h1120" stroke="#1f4ed8" stroke-width="20" stroke-linecap="round" />
  <g fill="url(#windowGlow)">
    <rect x="360" y="480" width="160" height="120" rx="16" />
    <rect x="560" y="480" width="160" height="120" rx="16" />
  </g>
  <text x="260" y="420" font-family="Inter, Arial, sans-serif" font-size="72" fill="#12264e" font-weight="700">Vic’s Bar & Grill</text>
</svg>
